<?xml version='1.0' encoding='utf-8'?>
<svg xmlns="http://www.w3.org/2000/svg" viewBox="0 0 720 110" width="720" height="110">
  <path d="M588 -442Q432 -442 324.0 -382.0Q216 -322 170 -217L248 -173Q285 -256 369.5 -307.5Q454 -359 588 -359Q749 -359 843.0 -276.0Q937 -193 937 -22V255H927Q888 146 795.5 76.0Q703 6 567 6Q435 6 334.5 74.0Q234 142 177.5 266.5Q121 391 121 559Q121 727 176.5 856.5Q232 986 332.5 1059.5Q433 1133 568 1133Q712 1133 800.5 1054.5Q889 976 929 868H938V1118H1027V-26Q1027 -235 906.0 -338.5Q785 -442 588 -442ZM577 90Q743 90 840.0 216.0Q937 342 937 560Q937 700 894.0 810.5Q851 921 770.5 985.0Q690 1049 577 1049Q462 1049 380.5 984.0Q299 919 256.0 808.5Q213 698 213 560Q213 421 256.5 315.0Q300 209 381.5 149.5Q463 90 577 90Z" fill="#FFFFFF" transform="translate(20.00,88.00) scale(0.044922,-0.044922)"/>
  <path d="M600 -24Q462 -24 353.5 51.0Q245 126 183.0 256.5Q121 387 121 555Q121 723 183.0 853.5Q245 984 353.5 1058.5Q462 1133 600 1133Q739 1133 847.0 1058.5Q955 984 1017.0 853.0Q1079 722 1079 555Q1079 387 1017.0 256.5Q955 126 847.0 51.0Q739 -24 600 -24ZM600 60Q717 60 804.0 126.0Q891 192 939.0 304.5Q987 417 987 555Q987 692 939.0 804.5Q891 917 804.0 983.0Q717 1049 600 1049Q484 1049 397.0 982.5Q310 916 261.5 804.0Q213 692 213 555Q213 417 261.5 304.5Q310 192 397.0 126.0Q484 60 600 60Z" fill="#FFFFFF" transform="translate(74.45,88.00) scale(0.044922,-0.044922)"/>
  <path d="M275 1490V0H185V1490Z" fill="#FFFFFF" transform="translate(128.35,88.00) scale(0.044922,-0.044922)"/>
  <path d="M591 1118V1036H323V0H232V1036H13V1118H232V1289Q232 1416 310.0 1486.5Q388 1557 498 1557Q541 1557 572.0 1551.0Q603 1545 623 1537L597 1456Q581 1462 558.5 1466.5Q536 1471 505 1471Q422 1471 372.5 1419.5Q323 1368 323 1276V1118Z" fill="#FFFFFF" transform="translate(149.02,88.00) scale(0.044922,-0.044922)"/>
  <path d="M116 0V1490H1150V1202H469V894H1096V612H469V288H1149V0Z" fill="#4ADE80" transform="translate(176.39,88.00) scale(0.044922,-0.044922)"/>
  <path d="M792 -20Q591 -20 430.5 69.0Q270 158 176.0 329.0Q82 500 82 744Q82 990 176.0 1161.0Q270 1332 430.5 1421.0Q591 1510 792 1510Q991 1510 1151.5 1421.0Q1312 1332 1406.0 1161.0Q1500 990 1500 744Q1500 551 1440.5 404.5Q1381 258 1278 160L1502 -117H1183L1062 27Q937 -20 792 -20ZM684 531H970L1057 421Q1140 539 1140 744Q1140 966 1047.0 1083.0Q954 1200 792 1200Q629 1200 536.0 1083.0Q443 966 443 744Q443 523 536.0 406.5Q629 290 792 290Q829 290 863 296Z" fill="#4ADE80" transform="translate(232.50,88.00) scale(0.044922,-0.044922)"/>
  <path d="M744 -19Q555 -19 414.0 48.5Q273 116 194.5 239.5Q116 363 116 529V1490H469V558Q469 441 545.0 365.0Q621 289 744 289Q868 289 944.0 365.0Q1020 441 1020 558V1490H1373V529Q1373 363 1294.0 239.5Q1215 116 1073.5 48.5Q932 -19 744 -19Z" fill="#4ADE80" transform="translate(304.42,88.00) scale(0.044922,-0.044922)"/>
  <path d="M47 0 544 1490H1017L1529 0H1133L1032 317H536L439 0ZM619 587H946L926 651Q887 779 850.0 919.0Q813 1059 777 1209Q743 1058 709.5 918.0Q676 778 639 651Z" fill="#4ADE80" transform="translate(371.31,88.00) scale(0.044922,-0.044922)"/>
  <path d="M116 0V1490H469V288H1092V0Z" fill="#4ADE80" transform="translate(442.11,88.00) scale(0.044922,-0.044922)"/>
  <path d="M469 1490V0H116V1490Z" fill="#4ADE80" transform="translate(494.13,88.00) scale(0.044922,-0.044922)"/>
  <path d="M109 0V202L688 1000Q726 1052 769.0 1103.5Q812 1155 858 1206Q789 1203 719.5 1202.5Q650 1202 580 1202H108V1490H1281V1287L713 504Q673 449 626.5 393.5Q580 338 531 283Q607 287 683.0 287.5Q759 288 835 288H1282V0Z" fill="#4ADE80" transform="translate(520.41,88.00) scale(0.044922,-0.044922)"/>
  <path d="M116 0V1490H1150V1202H469V894H1096V612H469V288H1149V0Z" fill="#4ADE80" transform="translate(582.85,88.00) scale(0.044922,-0.044922)"/>
  <path d="M116 0V1490H726Q978 1490 1123.5 1356.5Q1269 1223 1269 995Q1269 841 1201.5 733.0Q1134 625 1010 569L1321 0H934L661 513H469V0ZM469 792H652Q903 792 903 995Q903 1204 651 1204H469Z" fill="#4ADE80" transform="translate(638.96,88.00) scale(0.044922,-0.044922)"/>
</svg>