<?xml version='1.0' encoding='utf-8'?>
<svg xmlns="http://www.w3.org/2000/svg" viewBox="0 0 323 36" width="323" height="36">
  <path d="M171 -418V1118H303V903H318Q340 954 381.0 1007.0Q422 1060 490.0 1096.5Q558 1133 661 1133Q797 1133 900.5 1060.5Q1004 988 1062.0 858.5Q1120 729 1120 556Q1120 382 1062.5 251.5Q1005 121 901.5 48.5Q798 -24 661 -24Q560 -24 492.0 12.5Q424 49 382.0 103.0Q340 157 318 209H307V-418ZM643 99Q752 99 828.0 160.0Q904 221 943.5 324.5Q983 428 983 557Q983 685 944.0 787.5Q905 890 829.0 950.0Q753 1010 643 1010Q535 1010 459.5 952.0Q384 894 344.5 792.0Q305 690 305 557Q305 424 345.0 320.5Q385 217 460.5 158.0Q536 99 643 99Z" fill="#9CA3AF" transform="translate(10.00,26.00) scale(0.010742,-0.010742)"/>
  <path d="M607 -24Q461 -24 350.0 49.5Q239 123 176.0 253.0Q113 383 113 553Q113 725 176.0 855.5Q239 986 350.0 1059.5Q461 1133 607 1133Q752 1133 863.5 1059.5Q975 986 1038.0 855.5Q1101 725 1101 553Q1101 383 1038.0 253.0Q975 123 863.5 49.5Q752 -24 607 -24ZM607 99Q722 99 801.5 161.0Q881 223 923.0 326.0Q965 429 965 553Q965 678 923.0 781.5Q881 885 801.0 947.5Q721 1010 607 1010Q493 1010 413.5 947.5Q334 885 292.0 781.5Q250 678 250 553Q250 429 291.5 326.0Q333 223 413.0 161.0Q493 99 607 99Z" fill="#9CA3AF" transform="translate(23.25,26.00) scale(0.010742,-0.010742)"/>
  <path d="M411 0 76 1118H219L391 516Q413 436 437.0 343.5Q461 251 485 141Q510 248 534.0 340.5Q558 433 582 516L762 1118H910L1089 516Q1112 435 1136.0 343.0Q1160 251 1184 142Q1208 250 1232.0 342.0Q1256 434 1279 516L1450 1118H1593L1258 0H1118L927 625Q903 707 880.0 792.0Q857 877 835 966Q812 877 789.0 791.5Q766 706 743 625L552 0Z" fill="#9CA3AF" transform="translate(36.29,26.00) scale(0.010742,-0.010742)"/>
  <path d="M624 -24Q467 -24 352.5 49.5Q238 123 175.5 253.0Q113 383 113 552Q113 721 174.5 852.0Q236 983 346.5 1058.0Q457 1133 603 1133Q725 1133 834.0 1073.0Q943 1013 1011.0 890.0Q1079 767 1079 577V518H250Q254 327 355.0 212.5Q456 98 625 98Q742 98 817.0 152.0Q892 206 923 280L1052 239Q1014 134 903.5 55.0Q793 -24 624 -24ZM250 635H942Q931 798 842.0 904.5Q753 1011 603 1011Q502 1011 425.0 960.0Q348 909 302.0 823.5Q256 738 250 635Z" fill="#9CA3AF" transform="translate(54.21,26.00) scale(0.010742,-0.010742)"/>
  <path d="M171 0V1118H303V944H313Q346 1030 429.5 1081.5Q513 1133 617 1133Q633 1133 653.0 1132.5Q673 1132 686 1131V995Q679 996 656.0 999.0Q633 1002 606 1002Q476 1002 391.5 921.5Q307 841 307 717V0Z" fill="#9CA3AF" transform="translate(66.97,26.00) scale(0.010742,-0.010742)"/>
  <path d="M624 -24Q467 -24 352.5 49.5Q238 123 175.5 253.0Q113 383 113 552Q113 721 174.5 852.0Q236 983 346.5 1058.0Q457 1133 603 1133Q725 1133 834.0 1073.0Q943 1013 1011.0 890.0Q1079 767 1079 577V518H250Q254 327 355.0 212.5Q456 98 625 98Q742 98 817.0 152.0Q892 206 923 280L1052 239Q1014 134 903.5 55.0Q793 -24 624 -24ZM250 635H942Q931 798 842.0 904.5Q753 1011 603 1011Q502 1011 425.0 960.0Q348 909 302.0 823.5Q256 738 250 635Z" fill="#9CA3AF" transform="translate(74.87,26.00) scale(0.010742,-0.010742)"/>
  <path d="M571 -24Q434 -24 331.0 48.5Q228 121 170.5 251.5Q113 382 113 556Q113 729 171.0 858.5Q229 988 332.5 1060.5Q436 1133 572 1133Q674 1133 742.0 1096.5Q810 1060 851.5 1007.0Q893 954 915 903H926V1490H1061V0H930V209H915Q893 157 851.0 103.0Q809 49 740.5 12.5Q672 -24 571 -24ZM589 99Q697 99 772.5 158.0Q848 217 887.5 320.5Q927 424 927 557Q927 690 887.5 792.0Q848 894 772.5 952.0Q697 1010 589 1010Q479 1010 403.5 950.0Q328 890 289.0 787.5Q250 685 250 557Q250 428 289.5 324.5Q329 221 404.5 160.0Q480 99 589 99Z" fill="#9CA3AF" transform="translate(87.62,26.00) scale(0.010742,-0.010742)"/>
  <path d="M661 -24Q560 -24 492.0 12.5Q424 49 382.0 103.0Q340 157 318 209H303V0H171V1490H307V903H318Q340 954 381.0 1007.0Q422 1060 490.0 1096.5Q558 1133 661 1133Q797 1133 900.5 1060.5Q1004 988 1062.0 858.5Q1120 729 1120 556Q1120 382 1062.5 251.5Q1005 121 901.5 48.5Q798 -24 661 -24ZM643 99Q752 99 828.0 160.0Q904 221 943.5 324.5Q983 428 983 557Q983 685 944.0 787.5Q905 890 829.0 950.0Q753 1010 643 1010Q535 1010 459.5 952.0Q384 894 344.5 792.0Q305 690 305 557Q305 424 345.0 320.5Q385 217 460.5 158.0Q536 99 643 99Z" fill="#9CA3AF" transform="translate(107.03,26.00) scale(0.010742,-0.010742)"/>
  <path d="M138 -403 175 -285 191 -290Q280 -318 345.5 -284.5Q411 -251 454 -131L498 -9L69 1118H217L475 415Q503 340 525.0 265.5Q547 191 568 118Q590 191 612.5 265.5Q635 340 663 415L922 1118H1069L573 -182Q479 -426 267 -426Q226 -426 192.0 -419.0Q158 -412 138 -403Z" fill="#9CA3AF" transform="translate(120.27,26.00) scale(0.010742,-0.010742)"/>
  <path d="M787 -20Q586 -20 426.5 69.0Q267 158 174.5 328.5Q82 499 82 744Q82 990 175.5 1161.0Q269 1332 429.0 1421.0Q589 1510 787 1510Q964 1510 1105.0 1446.0Q1246 1382 1335.0 1260.0Q1424 1138 1445 964H1088Q1071 1073 993.5 1136.5Q916 1200 796 1200Q632 1200 537.5 1080.5Q443 961 443 744Q443 520 538.0 405.0Q633 290 794 290Q914 290 992.0 353.5Q1070 417 1089 526H1446Q1436 426 1388.5 329.0Q1341 232 1258.0 153.0Q1175 74 1057.0 27.0Q939 -20 787 -20Z" fill="#FFFFFF" transform="translate(138.67,26.00) scale(0.010742,-0.010742)"/>
  <path d="M792 -20Q591 -20 430.5 69.0Q270 158 176.0 329.0Q82 500 82 744Q82 990 176.0 1161.0Q270 1332 430.5 1421.0Q591 1510 792 1510Q991 1510 1151.5 1421.0Q1312 1332 1406.0 1161.0Q1500 990 1500 744Q1500 499 1406.0 328.0Q1312 157 1151.5 68.5Q991 -20 792 -20ZM792 290Q954 290 1047.0 406.5Q1140 523 1140 744Q1140 966 1047.0 1083.0Q954 1200 792 1200Q629 1200 536.0 1083.0Q443 966 443 744Q443 523 536.0 406.5Q629 290 792 290Z" fill="#FFFFFF" transform="translate(155.03,26.00) scale(0.010742,-0.010742)"/>
  <path d="M744 -19Q555 -19 414.0 48.5Q273 116 194.5 239.5Q116 363 116 529V1490H469V558Q469 441 545.0 365.0Q621 289 744 289Q868 289 944.0 365.0Q1020 441 1020 558V1490H1373V529Q1373 363 1294.0 239.5Q1215 116 1073.5 48.5Q932 -19 744 -19Z" fill="#FFFFFF" transform="translate(172.03,26.00) scale(0.010742,-0.010742)"/>
  <path d="M116 0V1490H726Q978 1490 1123.5 1356.5Q1269 1223 1269 995Q1269 841 1201.5 733.0Q1134 625 1010 569L1321 0H934L661 513H469V0ZM469 792H652Q903 792 903 995Q903 1204 651 1204H469Z" fill="#FFFFFF" transform="translate(188.03,26.00) scale(0.010742,-0.010742)"/>
  <path d="M691 -20Q411 -20 243.5 107.0Q76 234 72 492H411Q417 383 491.5 328.0Q566 273 687 273Q797 273 860.0 317.5Q923 362 923 433Q923 497 863.5 534.5Q804 572 682 600L524 637Q331 681 221.0 781.0Q111 881 111 1049Q111 1187 185.5 1290.5Q260 1394 391.0 1452.0Q522 1510 691 1510Q864 1510 991.0 1451.5Q1118 1393 1188.0 1288.5Q1258 1184 1260 1046H921Q914 1127 855.0 1172.0Q796 1217 690 1217Q584 1217 530.0 1176.0Q476 1135 476 1073Q476 1004 536.0 966.5Q596 929 696 907L825 877Q1041 829 1160.5 720.0Q1280 611 1280 432Q1280 220 1124.0 100.0Q968 -20 691 -20Z" fill="#FFFFFF" transform="translate(202.60,26.00) scale(0.010742,-0.010742)"/>
  <path d="M116 0V1490H1150V1202H469V894H1096V612H469V288H1149V0Z" fill="#FFFFFF" transform="translate(217.12,26.00) scale(0.010742,-0.010742)"/>
  <path d="M635 1118V1000H371V0H236V1000H17V1118H236V1278Q236 1369 277.0 1431.5Q318 1494 384.5 1526.5Q451 1559 528 1559Q581 1559 617.5 1550.5Q654 1542 675 1533L637 1416Q621 1421 598.5 1426.5Q576 1432 542 1432Q459 1432 415.0 1385.0Q371 1338 371 1251V1118Z" fill="#9CA3AF" transform="translate(230.04,26.00) scale(0.010742,-0.010742)"/>
  <path d="M465 -25Q363 -25 279.5 14.5Q196 54 146.5 129.0Q97 204 97 313Q97 423 152.0 488.5Q207 554 304.0 587.5Q401 621 527 636Q666 653 742.5 667.0Q819 681 819 745V771Q819 883 751.0 947.5Q683 1012 557 1012Q437 1012 362.5 959.5Q288 907 259 837L129 881Q166 972 233.0 1027.0Q300 1082 383.5 1107.5Q467 1133 554 1133Q620 1133 690.0 1115.5Q760 1098 820.0 1056.5Q880 1015 917.0 942.5Q954 870 954 759V0H821V177H811Q774 100 687.5 37.5Q601 -25 465 -25ZM485 96Q587 96 662.0 141.5Q737 187 778.0 262.5Q819 338 819 429V588Q800 570 747.0 556.5Q694 543 633.0 534.5Q572 526 528 520Q387 503 310.0 454.5Q233 406 233 307Q233 207 305.0 151.5Q377 96 485 96Z" fill="#9CA3AF" transform="translate(237.62,26.00) scale(0.010742,-0.010742)"/>
  <path d="M607 -21Q461 -21 350.0 52.0Q239 125 176.0 254.5Q113 384 113 554Q113 726 176.0 856.0Q239 986 350.0 1059.5Q461 1133 607 1133Q720 1133 808.0 1090.0Q896 1047 954.0 982.0Q1012 917 1034 848L905 808Q892 850 854.5 897.0Q817 944 754.5 977.0Q692 1010 607 1010Q493 1010 413.5 948.5Q334 887 292.0 783.5Q250 680 250 554Q250 430 292.0 327.0Q334 224 413.5 162.5Q493 101 607 101Q694 101 757.0 135.0Q820 169 859.0 217.5Q898 266 910 309L1038 269Q1017 200 958.5 133.0Q900 66 810.5 22.5Q721 -21 607 -21Z" fill="#9CA3AF" transform="translate(249.70,26.00) scale(0.010742,-0.010742)"/>
  <path d="M549 1118V1000H319V264Q319 96 469 111Q483 111 503.5 114.5Q524 118 542 122L570 5Q527 -9 468 -11Q335 -20 259.0 52.5Q183 125 183 255V1000H17V1118H183V1384H319V1118Z" fill="#9CA3AF" transform="translate(262.00,26.00) scale(0.010742,-0.010742)"/>
  <path d="M607 -24Q461 -24 350.0 49.5Q239 123 176.0 253.0Q113 383 113 553Q113 725 176.0 855.5Q239 986 350.0 1059.5Q461 1133 607 1133Q752 1133 863.5 1059.5Q975 986 1038.0 855.5Q1101 725 1101 553Q1101 383 1038.0 253.0Q975 123 863.5 49.5Q752 -24 607 -24ZM607 99Q722 99 801.5 161.0Q881 223 923.0 326.0Q965 429 965 553Q965 678 923.0 781.5Q881 885 801.0 947.5Q721 1010 607 1010Q493 1010 413.5 947.5Q334 885 292.0 781.5Q250 678 250 553Q250 429 291.5 326.0Q333 223 413.0 161.0Q493 99 607 99Z" fill="#9CA3AF" transform="translate(268.57,26.00) scale(0.010742,-0.010742)"/>
  <path d="M171 0V1118H303V944H313Q346 1030 429.5 1081.5Q513 1133 617 1133Q633 1133 653.0 1132.5Q673 1132 686 1131V995Q679 996 656.0 999.0Q633 1002 606 1002Q476 1002 391.5 921.5Q307 841 307 717V0Z" fill="#9CA3AF" transform="translate(281.61,26.00) scale(0.010742,-0.010742)"/>
  <path d="M289 -12Q244 -12 212.5 19.5Q181 51 181 96Q181 141 212.5 172.5Q244 204 289 204Q334 204 365.5 172.5Q397 141 397 96Q397 51 365.5 19.5Q334 -12 289 -12Z" fill="#9CA3AF" transform="translate(289.52,26.00) scale(0.010742,-0.010742)"/>
  <path d="M465 -25Q363 -25 279.5 14.5Q196 54 146.5 129.0Q97 204 97 313Q97 423 152.0 488.5Q207 554 304.0 587.5Q401 621 527 636Q666 653 742.5 667.0Q819 681 819 745V771Q819 883 751.0 947.5Q683 1012 557 1012Q437 1012 362.5 959.5Q288 907 259 837L129 881Q166 972 233.0 1027.0Q300 1082 383.5 1107.5Q467 1133 554 1133Q620 1133 690.0 1115.5Q760 1098 820.0 1056.5Q880 1015 917.0 942.5Q954 870 954 759V0H821V177H811Q774 100 687.5 37.5Q601 -25 465 -25ZM485 96Q587 96 662.0 141.5Q737 187 778.0 262.5Q819 338 819 429V588Q800 570 747.0 556.5Q694 543 633.0 534.5Q572 526 528 520Q387 503 310.0 454.5Q233 406 233 307Q233 207 305.0 151.5Q377 96 485 96Z" fill="#9CA3AF" transform="translate(295.72,26.00) scale(0.010742,-0.010742)"/>
  <path d="M171 0V1118H307V0ZM240 1325Q199 1325 170.0 1353.0Q141 1381 141 1420Q141 1459 170.0 1487.0Q199 1515 240 1515Q281 1515 310.0 1487.0Q339 1459 339 1420Q339 1381 310.0 1353.0Q281 1325 240 1325Z" fill="#9CA3AF" transform="translate(307.81,26.00) scale(0.010742,-0.010742)"/>
</svg>